<?xml version="1.0" encoding="UTF-8" standalone="no"?>
<!-- Created by Symbolator http://kevinpt.github.io/symbolator -->
<svg xmlns="http://www.w3.org/2000/svg"
xmlns:xlink="http://www.w3.org/1999/xlink"
xml:space="preserve"
width="490" height="551" viewBox="-26 -20 613.0 689.0" version="1.1">
<style type="text/css">
<![CDATA[
.fnt1 {fill:#000000;
    font-family:Helvetica; font-size:12pt; font-weight:normal; font-style:normal;}
.fnt2 {fill:#000000;
    font-family:Times; font-size:12pt; font-weight:normal; font-style:italic;}
.label {fill:#000;
  text-anchor:middle;
  font-size:16pt; font-weight:bold; font-family:Sans;}
.link {fill: #0D47A1;}
.link:hover {fill: #0D47A1; text-decoration:underline;}
.link:visited {fill: #4A148C;}
]]>
</style>
<defs>
<marker id="bubble" markerWidth="7.0" markerHeight="7.0" viewBox="0 0 7.0 7.0" refX="3.5" refY="3.5" orient="auto" markerUnits="userSpaceOnUse">
<g transform="translate(3.5,3.5)"><ellipse cx="0.0" cy="0.0" rx="3.0" ry="3.0" stroke="#000000" fill="#FFFFFF" stroke-width="1"/>
</g>
</marker>
<marker id="clock" markerWidth="8.0" markerHeight="15.0" viewBox="0 0 8.0 15.0" refX="0.5" refY="7.5" orient="auto" markerUnits="userSpaceOnUse">
<g transform="translate(0.5,7.5)"><path d="M 0 -7 L 0 7 L 7 0 z" stroke="#000000" fill="#FFFFFF" stroke-width="1"/>
</g>
</marker>
</defs>
<rect x="-26" y="-20" width="100%" height="100%" fill="white"/><g transform="translate(0,0)">
<rect x="0" y="-15.0" width="560" height="110.0" stroke="#646464" fill="#C8C8C8" stroke-width="1"/>
<g transform="translate(0,0)">
<line x1="-20" y1="0" x2="0" y2="0" stroke="#000000" fill="none" stroke-width="1"/>
<text class="fnt1" x="10" y="0" text-anchor="normal" dy="3.5">AXI_DATA_WIDTH</text>
</g>
<g transform="translate(0,20)">
<line x1="-20" y1="0" x2="0" y2="0" stroke="#000000" fill="none" stroke-width="1"/>
<text class="fnt1" x="10" y="0" text-anchor="normal" dy="3.5">DEFAULT_PRESCALE</text>
</g>
<g transform="translate(0,40)">
<line x1="-20" y1="0" x2="0" y2="0" stroke="#000000" fill="none" stroke-width="1"/>
<text class="fnt1" x="10" y="0" text-anchor="normal" dy="3.5">FIXED_PRESCALE</text>
</g>
<g transform="translate(0,60)">
<line x1="-20" y1="0" x2="0" y2="0" stroke="#000000" fill="none" stroke-width="1"/>
<text class="fnt1" x="10" y="0" text-anchor="normal" dy="3.5">FIFO</text>
</g>
<g transform="translate(0,80)">
<line x1="-20" y1="0" x2="0" y2="0" stroke="#000000" fill="none" stroke-width="1"/>
<text class="fnt1" x="10" y="0" text-anchor="normal" dy="3.5">FIFO_ADDR_WIDTH</text>
</g>
</g>
<rect x="1.0" y="-14.0" width="558.0" height="108.0" stroke="#646464" fill="none" stroke-width="3"/>
<g transform="translate(0,118.0)">
<rect x="0" y="-15.0" width="560" height="68.0" stroke="#000000" fill="#FFF6B1" stroke-width="1"/>
<text class="fnt2" x="280.0" y="0" text-anchor="middle" dy="2.25">CONTROL</text>
<g transform="translate(0,18)">
<line x1="-20" y1="0" x2="0" y2="0" stroke="#000000" fill="none" stroke-width="1" marker-end="url(#clock)"/>
<text class="fnt1" x="10" y="0" text-anchor="normal" dy="3.5">LEPTON_CLK</text>
</g>
<g transform="translate(0,38)">
<line x1="-20" y1="0" x2="-3.5" y2="0.0" stroke="#000000" fill="none" stroke-width="1" marker-end="url(#bubble)"/>
<text class="fnt1" x="10" y="0" text-anchor="normal" dy="3.5">LEPTON_RST_N</text>
</g>
</g>
<g transform="translate(0,186.0)">
<rect x="0" y="-15.0" width="560" height="68.0" stroke="#000000" fill="#E7FDBA" stroke-width="1"/>
<text class="fnt2" x="280.0" y="0" text-anchor="middle" dy="2.25">SPI Master</text>
<g transform="translate(0,18)">
<line x1="-20" y1="0" x2="0" y2="0" stroke="#000000" fill="none" stroke-width="1"/>
<text class="fnt1" x="10" y="0" text-anchor="normal" dy="3.5">LEPTON_SPI_MISO</text>
</g>
<g transform="translate(0,38)">
<line x1="-20" y1="0" x2="0" y2="0" stroke="#000000" fill="none" stroke-width="1"/>
<text class="fnt1" x="10" y="0" text-anchor="normal" dy="3.5">LEPTON_SPI_CS</text>
</g>
<g transform="translate(560,18)">
<line x1="20" y1="0" x2="0" y2="0" stroke="#000000" fill="none" stroke-width="1"/>
<text class="fnt1" x="-10" y="0" text-anchor="end" dy="3.5">LEPTON_SPI_CLK</text>
</g>
<g transform="translate(560,38)">
<line x1="20" y1="0" x2="0" y2="0" stroke="#000000" fill="none" stroke-width="1"/>
<text class="fnt1" x="-10" y="0" text-anchor="end" dy="3.5">LEPTON_SPI_MOSI</text>
</g>
</g>
<g transform="translate(0,254.0)">
<rect x="0" y="-15.0" width="560" height="108.0" stroke="#000000" fill="#FFAFFD" stroke-width="1"/>
<text class="fnt2" x="280.0" y="0" text-anchor="middle" dy="2.25">I2C Master</text>
<g transform="translate(0,18)">
<line x1="-20" y1="0" x2="0" y2="0" stroke="#000000" fill="none" stroke-width="1"/>
<text class="fnt1" x="10" y="0" text-anchor="normal" dy="3.5">LEPTON_I2C_SDA_I</text>
</g>
<g transform="translate(0,38)">
<line x1="-20" y1="0" x2="0" y2="0" stroke="#000000" fill="none" stroke-width="1"/>
<text class="fnt1" x="10" y="0" text-anchor="normal" dy="3.5">LEPTON_I2C_SCL_I</text>
</g>
<g transform="translate(560,18)">
<line x1="20" y1="0" x2="0" y2="0" stroke="#000000" fill="none" stroke-width="1"/>
<text class="fnt1" x="-10" y="0" text-anchor="end" dy="3.5">LEPTON_I2C_SDA_O</text>
</g>
<g transform="translate(560,38)">
<line x1="20" y1="0" x2="0" y2="0" stroke="#000000" fill="none" stroke-width="1"/>
<text class="fnt1" x="-10" y="0" text-anchor="end" dy="3.5">LEPTON_I2C_SDA_T</text>
</g>
<g transform="translate(560,58)">
<line x1="20" y1="0" x2="0" y2="0" stroke="#000000" fill="none" stroke-width="1"/>
<text class="fnt1" x="-10" y="0" text-anchor="end" dy="3.5">LEPTON_I2C_SCL_O</text>
</g>
<g transform="translate(560,78)">
<line x1="20" y1="0" x2="0" y2="0" stroke="#000000" fill="none" stroke-width="1"/>
<text class="fnt1" x="-10" y="0" text-anchor="end" dy="3.5">LEPTON_I2C_SCL_T</text>
</g>
</g>
<g transform="translate(0,362.0)">
<rect x="0" y="-15.0" width="560" height="68.0" stroke="#000000" fill="#B9FDE9" stroke-width="1"/>
<text class="fnt2" x="280.0" y="0" text-anchor="middle" dy="2.25">AXI STREAM Master</text>
<g transform="translate(0,18)">
<line x1="-20" y1="0" x2="0" y2="0" stroke="#000000" fill="none" stroke-width="1"/>
<text class="fnt1" x="10" y="0" text-anchor="normal" dy="3.5">LEPTON_M_AXI_STREAM_TREADY</text>
</g>
<g transform="translate(0,38)">
<line x1="-20" y1="0" x2="0" y2="0" stroke="#000000" fill="none" stroke-width="1"/>
<text class="fnt1" x="10" y="0" text-anchor="normal" dy="3.5">LEPTON_M_AXI_STREAM_TVALID</text>
</g>
<g transform="translate(560,18)">
<line x1="20" y1="0" x2="0" y2="0" stroke="#000000" fill="none" stroke-width="3"/>
<text class="fnt1" x="-10" y="0" text-anchor="end" dy="3.5">LEPTON_M_AXI_STREAM_TDATA</text>
</g>
<g transform="translate(560,38)">
<line x1="20" y1="0" x2="0" y2="0" stroke="#000000" fill="none" stroke-width="1"/>
<text class="fnt1" x="-10" y="0" text-anchor="end" dy="3.5">LEPTON_M_AXI_STREAM_TLAST</text>
</g>
</g>
<g transform="translate(0,430.0)">
<rect x="0" y="-15.0" width="560" height="248.0" stroke="#000000" fill="#FBDCC4" stroke-width="1"/>
<text class="fnt2" x="280.0" y="0" text-anchor="middle" dy="2.25">AXI LITE Slave</text>
<g transform="translate(0,18)">
<line x1="-20" y1="0" x2="0" y2="0" stroke="#000000" fill="none" stroke-width="3"/>
<text class="fnt1" x="10" y="0" text-anchor="normal" dy="3.5">LEPTON_S_AXI_LITE_TAWADDR</text>
</g>
<g transform="translate(0,38)">
<line x1="-20" y1="0" x2="0" y2="0" stroke="#000000" fill="none" stroke-width="3"/>
<text class="fnt1" x="10" y="0" text-anchor="normal" dy="3.5">LEPTON_S_AXI_LITE_TAWPROT</text>
</g>
<g transform="translate(0,58)">
<line x1="-20" y1="0" x2="0" y2="0" stroke="#000000" fill="none" stroke-width="1"/>
<text class="fnt1" x="10" y="0" text-anchor="normal" dy="3.5">LEPTON_S_AXI_LITE_TAWVALID</text>
</g>
<g transform="translate(0,78)">
<line x1="-20" y1="0" x2="0" y2="0" stroke="#000000" fill="none" stroke-width="3"/>
<text class="fnt1" x="10" y="0" text-anchor="normal" dy="3.5">LEPTON_S_AXI_LITE_TWDATA</text>
</g>
<g transform="translate(0,98)">
<line x1="-20" y1="0" x2="0" y2="0" stroke="#000000" fill="none" stroke-width="3"/>
<text class="fnt1" x="10" y="0" text-anchor="normal" dy="3.5">LEPTON_S_AXI_LITE_TWSTRB</text>
</g>
<g transform="translate(0,118)">
<line x1="-20" y1="0" x2="0" y2="0" stroke="#000000" fill="none" stroke-width="1"/>
<text class="fnt1" x="10" y="0" text-anchor="normal" dy="3.5">LEPTON_S_AXI_LITE_TWVALID</text>
</g>
<g transform="translate(0,138)">
<line x1="-20" y1="0" x2="0" y2="0" stroke="#000000" fill="none" stroke-width="1"/>
<text class="fnt1" x="10" y="0" text-anchor="normal" dy="3.5">LEPTON_S_AXI_LITE_TBREADY</text>
</g>
<g transform="translate(0,158)">
<line x1="-20" y1="0" x2="0" y2="0" stroke="#000000" fill="none" stroke-width="3"/>
<text class="fnt1" x="10" y="0" text-anchor="normal" dy="3.5">LEPTON_S_AXI_LITE_TARADDR</text>
</g>
<g transform="translate(0,178)">
<line x1="-20" y1="0" x2="0" y2="0" stroke="#000000" fill="none" stroke-width="3"/>
<text class="fnt1" x="10" y="0" text-anchor="normal" dy="3.5">LEPTON_S_AXI_LITE_TARPROT</text>
</g>
<g transform="translate(0,198)">
<line x1="-20" y1="0" x2="0" y2="0" stroke="#000000" fill="none" stroke-width="1"/>
<text class="fnt1" x="10" y="0" text-anchor="normal" dy="3.5">LEPTON_S_AXI_LITE_TARVALID</text>
</g>
<g transform="translate(0,218)">
<line x1="-20" y1="0" x2="0" y2="0" stroke="#000000" fill="none" stroke-width="1"/>
<text class="fnt1" x="10" y="0" text-anchor="normal" dy="3.5">LEPTON_S_AXI_LITE_TRREADY</text>
</g>
<g transform="translate(560,18)">
<line x1="20" y1="0" x2="0" y2="0" stroke="#000000" fill="none" stroke-width="1"/>
<text class="fnt1" x="-10" y="0" text-anchor="end" dy="3.5">LEPTON_S_AXI_LITE_TAWREADY</text>
</g>
<g transform="translate(560,38)">
<line x1="20" y1="0" x2="0" y2="0" stroke="#000000" fill="none" stroke-width="1"/>
<text class="fnt1" x="-10" y="0" text-anchor="end" dy="3.5">LEPTON_S_AXI_LITE_TWREADY</text>
</g>
<g transform="translate(560,58)">
<line x1="20" y1="0" x2="0" y2="0" stroke="#000000" fill="none" stroke-width="3"/>
<text class="fnt1" x="-10" y="0" text-anchor="end" dy="3.5">LEPTON_S_AXI_LITE_TBRESP</text>
</g>
<g transform="translate(560,78)">
<line x1="20" y1="0" x2="0" y2="0" stroke="#000000" fill="none" stroke-width="1"/>
<text class="fnt1" x="-10" y="0" text-anchor="end" dy="3.5">LEPTON_S_AXI_LITE_TBVALID</text>
</g>
<g transform="translate(560,98)">
<line x1="20" y1="0" x2="0" y2="0" stroke="#000000" fill="none" stroke-width="1"/>
<text class="fnt1" x="-10" y="0" text-anchor="end" dy="3.5">LEPTON_S_AXI_LITE_TARREADY</text>
</g>
<g transform="translate(560,118)">
<line x1="20" y1="0" x2="0" y2="0" stroke="#000000" fill="none" stroke-width="3"/>
<text class="fnt1" x="-10" y="0" text-anchor="end" dy="3.5">LEPTON_S_AXI_LITE_TRDATA</text>
</g>
<g transform="translate(560,138)">
<line x1="20" y1="0" x2="0" y2="0" stroke="#000000" fill="none" stroke-width="3"/>
<text class="fnt1" x="-10" y="0" text-anchor="end" dy="3.5">LEPTON_S_AXI_LITE_TRRESP</text>
</g>
<g transform="translate(560,158)">
<line x1="20" y1="0" x2="0" y2="0" stroke="#000000" fill="none" stroke-width="1"/>
<text class="fnt1" x="-10" y="0" text-anchor="end" dy="3.5">LEPTON_S_AXI_LITE_TRVALID</text>
</g>
</g>
<rect x="1.0" y="104.0" width="558.0" height="558.0" stroke="#000000" fill="none" stroke-width="3"/>
</svg>